<svg id="Слой_1" data-name="Слой 1" xmlns="http://www.w3.org/2000/svg" viewBox="0 0 106.66 106.89"><defs><style>.cls-1{fill:#435df7;}</style></defs><path class="cls-1" d="M70,0h3a20.84,20.84,0,0,1,8.85,1.92,23,23,0,0,1,7.25,5.2A25.15,25.15,0,0,1,95.8,24.31q0,4.32-.27,8.25a71.16,71.16,0,0,1-1,7.69,62.43,62.43,0,0,1-1.84,7.49,63.46,63.46,0,0,1-3,7.64v7.85a57.9,57.9,0,0,1-.44,6.58c-.3,2.5-.73,5.09-1.31,7.78a77.57,77.57,0,0,1-2.22,8.1,51,51,0,0,1-3.17,7.53,30.89,30.89,0,0,1-4.11,6.09,13.71,13.71,0,0,1-5.09,3.74,6.92,6.92,0,0,1-1.63.48c-.52.07-1.08.14-1.67.2h-.34a11.2,11.2,0,0,1-4.09-1,10.43,10.43,0,0,1-3.3-2.36,11.22,11.22,0,0,1-2.2-3.52,12.13,12.13,0,0,1-.8-4.47v-14a7.21,7.21,0,0,0-1.46-4.64,6.62,6.62,0,0,0-4-2.39.93.93,0,0,0-.32,0h-.31a5.24,5.24,0,0,0-2.47.59,6,6,0,0,0-1.92,1.58,7.27,7.27,0,0,0-1.25,2.25,7.86,7.86,0,0,0-.44,2.66v14a11.76,11.76,0,0,1-.81,4.33,11.43,11.43,0,0,1-2.19,3.63A10.62,10.62,0,0,1,41,102.8a9,9,0,0,1-4,.93h-.34a10.17,10.17,0,0,1-4.84-1.49,17.28,17.28,0,0,1-4.09-3.54,27,27,0,0,1-3.4-5,49.71,49.71,0,0,1-2.73-6.09A65.91,65.91,0,0,1,19.45,81C18.87,78.7,18.4,76.5,18,74.37s-.67-4.16-.85-6.07-.27-3.6-.27-5.07V55.38a65.25,65.25,0,0,1-4.54-13.53,66.43,66.43,0,0,1-1.55-14.3V24.31A25.22,25.22,0,0,1,17.49,7.12a22.91,22.91,0,0,1,7.24-5.2A20.91,20.91,0,0,1,33.58,0c2,0,3.85.06,5.47.18A29,29,0,0,1,43.72.9a30,30,0,0,1,4.5,1.49,51,51,0,0,1,5,2.48,2.11,2.11,0,0,0,1.31-.5,6.67,6.67,0,0,1,1.19-.76A30.35,30.35,0,0,1,70,0ZM89.76,27.55V24.31a18.29,18.29,0,0,0-1.31-6.95,17.91,17.91,0,0,0-3.59-5.66,17,17,0,0,0-5.32-3.81A15.45,15.45,0,0,0,73,6.49c-1.35,0-2.64,0-3.86.07a29.89,29.89,0,0,0-3.59.36,23.17,23.17,0,0,0-3.49.88A24.33,24.33,0,0,0,58.5,9.38c-.87.45-1.71.89-2.51,1.33a5.85,5.85,0,0,1-5.36,0c-.81-.44-1.64-.88-2.52-1.33a23.93,23.93,0,0,0-5.57-2.17,24.66,24.66,0,0,0-5.92-.72h-3a15.37,15.37,0,0,0-6.5,1.4,16.65,16.65,0,0,0-5.3,3.81,18,18,0,0,0-3.57,5.66,18.29,18.29,0,0,0-1.31,7c0,2.73.08,5.35.25,7.84a62.45,62.45,0,0,0,.93,7.33,55.33,55.33,0,0,0,1.84,7.13,50,50,0,0,0,3,7.19c.45.88.91,1.73,1.39,2.57s1,1.69,1.48,2.53a23.77,23.77,0,0,0,1.54,2.23c.55.71,1.08,1.45,1.59,2.23a3.59,3.59,0,0,1,.67,2,3.41,3.41,0,0,1-.86,2.33,2.78,2.78,0,0,1-2.14,1,2.66,2.66,0,0,1-2-.88L23,66.07c.11,2,.32,3.89.61,5.8s.69,3.81,1.17,5.7c.19.78.48,1.81.86,3.09s.85,2.65,1.4,4.1,1.16,2.93,1.85,4.4a30.58,30.58,0,0,0,2.26,4,14.51,14.51,0,0,0,2.58,2.93,4.42,4.42,0,0,0,6.12-.23,4.82,4.82,0,0,0,1.32-3.52v-14a14.64,14.64,0,0,1,.8-4.85,13.51,13.51,0,0,1,2.26-4.14,12.92,12.92,0,0,1,3.44-3,10.82,10.82,0,0,1,4.39-1.46,4.82,4.82,0,0,1,.61-.05h1.23a4.68,4.68,0,0,1,.61.05A11,11,0,0,1,59,66.36a12.85,12.85,0,0,1,3.46,3,13.72,13.72,0,0,1,2.26,4.14,14.9,14.9,0,0,1,.8,4.85v14a5.21,5.21,0,0,0,.34,1.83,5.47,5.47,0,0,0,.91,1.56,4.41,4.41,0,0,0,1.35,1.08,3.65,3.65,0,0,0,1.71.4H70a4.47,4.47,0,0,0,2.86-1.12,13.67,13.67,0,0,0,2.59-3,28.84,28.84,0,0,0,2.26-4.06q1-2.24,1.86-4.42c.55-1.45,1-2.83,1.4-4.12s.67-2.33.86-3.11A60.65,60.65,0,0,0,83.6,65.89l-.17.27A21.68,21.68,0,0,1,82,67.87a2.52,2.52,0,0,1-1.94.82,2.82,2.82,0,0,1-2.18-1A3.36,3.36,0,0,1,77,65.39a3.59,3.59,0,0,1,.67-2c.51-.78,1-1.52,1.59-2.23a25.83,25.83,0,0,0,1.54-2.23c.5-.84,1-1.68,1.47-2.53s1-1.69,1.4-2.57a55.44,55.44,0,0,0,4.56-12.72A60.23,60.23,0,0,0,89.76,27.55ZM70,13a2.8,2.8,0,0,1,2.12.94A3.21,3.21,0,0,1,73,16.19a3.28,3.28,0,0,1-.88,2.28,2.8,2.8,0,0,1-2.12,1,11,11,0,0,0-2.23.2,13.3,13.3,0,0,0-2,.54A18.36,18.36,0,0,0,64,21c-.61.3-1.25.63-1.93,1l-.67.36a17.31,17.31,0,0,1-4,1.49,17.75,17.75,0,0,1-4.14.5,18.36,18.36,0,0,1-4.12-.48,14.93,14.93,0,0,1-3.91-1.46L44.61,22l-1.92-1a17.45,17.45,0,0,0-1.84-.81,13.22,13.22,0,0,0-2-.54,11.38,11.38,0,0,0-2.26-.2,2.85,2.85,0,0,1-2.15-1,3.25,3.25,0,0,1-.89-2.3,3.16,3.16,0,0,1,.91-2.26A2.87,2.87,0,0,1,36.62,13a19.43,19.43,0,0,1,4.54.54,16.84,16.84,0,0,1,4.29,1.67l.51.27c.62.36,1.21.68,1.77,1a14.1,14.1,0,0,0,1.71.72,15,15,0,0,0,1.78.47,10.57,10.57,0,0,0,2.05.18,12.68,12.68,0,0,0,2-.15,9.67,9.67,0,0,0,1.76-.48c.55-.21,1.09-.44,1.64-.7s1.14-.55,1.76-.88l.84-.45a18.09,18.09,0,0,1,4.25-1.62A19,19,0,0,1,70,13Z"/></svg>